<?xml version="1.0" encoding="UTF-8" standalone="no"?><!DOCTYPE svg PUBLIC "-//W3C//DTD SVG 1.1//EN" "http://www.w3.org/Graphics/SVG/1.1/DTD/svg11.dtd"><svg width="100%" height="100%" viewBox="0 0 123 123" version="1.1" xmlns="http://www.w3.org/2000/svg" xmlns:xlink="http://www.w3.org/1999/xlink" xml:space="preserve" xmlns:serif="http://www.serif.com/" style="fill-rule:evenodd;clip-rule:evenodd;stroke-linejoin:round;stroke-miterlimit:2;"><rect width="123" height="123" rx="30" fill="#EEF3FA"/><path d="M122.88,30.72l0,61.44c0,16.955 -13.765,30.72 -30.72,30.72l-61.44,0c-16.955,0 -30.72,-13.765 -30.72,-30.72l0,-61.44c0,-16.955 13.765,-30.72 30.72,-30.72l61.44,0c16.955,0 30.72,13.765 30.72,30.72Z" style="fill:#EEF3FA;"/><g><path d="M103.282,60.083c-2.905,2.716 -6.803,4.386 -10.596,5.489c-1.431,0.416 -5.191,1.443 -6.518,1.172c-0.729,-0.149 -3.256,-1.953 -4.013,-2.478c-0.99,-0.685 -1.94,-1.437 -2.897,-2.167l-0.321,-0.068c-0.743,0.566 -1.803,0.939 -2.527,1.489c-2.152,1.634 -4.154,4.689 -6.348,6.445c-0.811,0.649 -1.197,0.704 -2.196,0.476c-4.168,-0.955 -8.418,-2.751 -12.633,-3.692l-0.449,-0.315c-1.084,-1.545 -1.62,-3.45 -2.534,-5.107c-3.932,1.877 -7.541,4.311 -11.212,6.632c-0.999,0.377 -2.049,-0.249 -3.019,-0.323c-0.922,-0.069 -3.545,1.122 -4.693,1.394c-2.435,0.579 -3.374,-0.378 -4.939,-2.072c-0.635,-0.687 -1.53,-2.103 -2.153,-2.62c-0.4,-0.333 -1.443,-0.697 -1.967,-0.993c-1.602,-0.903 -3.232,-1.83 -4.422,-3.262c-1.787,8.498 -2.529,17.471 -1.021,26.08c1.966,11.226 7.098,16.801 17.607,20.77c15.343,5.795 41.03,6.496 55.683,-1.454c1.349,-0.732 2.782,-1.646 3.957,-2.63c9.551,-7.999 9.662,-27.508 7.958,-38.79c-0.202,-1.333 -0.457,-2.663 -0.749,-3.977m-11.126,-6.359c-0.542,0.782 -1.04,1.587 -1.628,2.339c-1.122,1.436 -2.486,2.867 -3.855,4.068c-0.787,0.69 -1.916,1.388 -2.611,2.067c-0.051,0.049 -0.212,0.093 -0.112,0.176l2.791,1.889c1.97,-0.164 4.027,-0.702 5.924,-1.292c2.075,-0.645 7.982,-2.892 8.981,-4.766c0.818,-1.534 -1.891,-2.744 -3.016,-3.158c-2.045,-0.753 -4.321,-1.033 -6.473,-1.323m-59.728,-0.202c-2.849,0.133 -7.98,0.886 -10.145,2.84c-0.563,0.508 -0.94,1.041 -0.669,1.808c0.698,1.972 4.571,2.944 6.149,4.066c1.214,0.863 2.362,2.712 3.44,3.815c0.218,0.223 0.506,0.578 0.823,0.616c0.397,0.049 1.412,-0.304 1.852,-0.428c1.444,-0.407 3.023,-1.229 4.523,-1.086c0.613,0.058 1.27,0.34 1.899,0.355l3.219,-2.133c-4.044,-2.663 -7.921,-5.738 -10.595,-9.832c-0.162,-0.112 -0.331,-0.029 -0.496,-0.021m29.212,-42.195c-15.751,0.215 -33.226,12.753 -31.197,29.995c1.053,8.945 7.872,16.414 15.512,20.574c1.227,-0.675 2.429,-1.413 3.674,-2.054c1.311,-0.675 3.523,-2.196 4.664,-0.555l2.499,5.043c3.979,0.755 7.802,2.11 11.691,3.201l5.873,-5.683c0.471,-0.386 3.794,-2.354 4.255,-2.427c0.408,-0.065 0.919,-0.017 1.309,0.112c0.533,0.175 1.643,1.25 1.98,1.179c0.244,-0.051 1.005,-0.65 1.27,-0.837c12.76,-9 13.232,-24.809 4.071,-36.686c-5.842,-7.572 -16.08,-11.991 -25.601,-11.861m31.811,40.066c3.824,0.577 8.173,1.289 10.676,4.552c1.531,1.997 2.146,6.544 2.484,9.067c1.471,10.958 1.078,27.205 -5.772,36.397c-8.246,11.064 -29.163,13.045 -41.904,12.424c-11.585,-0.563 -29.109,-3.752 -36.796,-13.229c-7.486,-9.229 -7.358,-25.555 -5.512,-36.724c0.78,-4.717 1.266,-8.143 5.827,-10.593c3.001,-1.612 5.504,-1.561 8.705,-2.083c0.112,-0.018 0.17,-0.054 0.236,-0.144c-5.254,-8.817 -4.166,-19.667 1.738,-27.859c6.918,-9.599 20.667,-15.308 32.392,-14.098c8.142,0.84 16.976,4.942 22.342,11.167c7.261,8.424 10.503,20.695 5.584,31.123" style="fill:#12164A;fill-rule:nonzero;"/><path d="M76.264,91.301c-0.231,-0.031 -0.151,0 -0.199,0.132c-0.184,0.507 -0.283,1.09 -0.49,1.611c-0.942,2.369 -2.774,5.1 -4.941,6.468c-0.022,0.122 0,0.164 0.099,0.232c0.185,0.128 2.274,0.515 2.667,0.58c0.492,0.082 0.998,0.171 1.494,0.225c0.405,0.043 2.09,0.242 2.28,0.013c0.176,-0.211 0.479,-1.79 0.523,-2.15c0.183,-1.516 -0,-3.428 -0.451,-4.893c-0.239,-0.777 -0.63,-1.492 -0.982,-2.218m2.388,9.068c7.701,-2.082 3.903,-14.472 -3.797,-12.053c-1.505,0.472 -2.631,1.487 -3.967,2.238c-2.931,1.647 -5.944,1.998 -9.276,1.701c-4.34,-0.386 -13.459,-3.562 -16.413,1.059c-2.812,4.397 4.742,6.683 7.822,6.96c4.667,0.419 8.616,-1.947 13.459,-1.43c0.595,0.063 1.688,0.408 2.192,0.376c0.255,-0.016 0.805,-0.424 1.037,-0.586c1.905,-1.336 3.643,-3.825 4.539,-5.962c0.419,-1.001 0.583,-3.18 1.963,-2.989c1.242,0.172 2.334,3.31 2.587,4.386c0.482,2.057 0.492,4.28 -0.144,6.301m-2.024,-14.196c6.774,-0.19 10.551,8.736 6.222,13.765c-4.275,4.967 -11.858,1.015 -17.129,0.714c-3.635,-0.208 -6.401,1.142 -9.839,1.436c-3.221,0.275 -7.199,-0.428 -9.967,-2.155c-5.141,-3.209 -3.492,-8.861 1.923,-10.471c6.354,-1.889 12.71,2.236 19.131,0.706c3.573,-0.851 5.846,-3.888 9.659,-3.995" style="fill:#12164A;fill-rule:nonzero;"/><path d="M41.209,75.571c-2.609,0.283 -2.435,4.317 0.354,4.084c2.683,-0.225 2.337,-4.376 -0.354,-4.084m1.147,-1.903c7.632,-0.572 8.072,11.001 0.547,11.241c-7.323,0.234 -7.891,-10.69 -0.547,-11.241" style="fill:#12164A;fill-rule:nonzero;"/><path d="M78.341,75.381c-2.409,0.411 -2.079,4.456 0.814,3.964c2.448,-0.416 1.95,-4.435 -0.814,-3.964m1.439,-1.905c3.976,-0.168 6.798,3.701 5.435,7.442c-1.693,4.649 -8.443,4.737 -10.303,0.137c-1.443,-3.567 1.036,-7.418 4.868,-7.579" style="fill:#12164A;fill-rule:nonzero;"/><path d="M63.951,57.888l-5.347,0.144c0.613,2.62 4.866,2.532 5.347,-0.144m2.262,-1.749c0.447,-0.397 0.423,-1.794 -0.117,-1.884c-0.318,-0.052 -1.379,0.243 -1.811,0.29c-1.87,0.202 -3.754,0.24 -5.631,0.095c-0.498,-0.038 -1.729,-0.345 -2.096,-0.287c-0.751,0.118 -0.708,1.496 -0.184,1.899c0.734,0.562 4.587,0.632 5.624,0.59c0.431,-0.017 0.998,-0.059 1.427,-0.101c0.537,-0.052 2.447,-0.299 2.788,-0.602m1.818,-6.067c-0.14,0.021 -0.398,0.214 -0.594,0.275c-3.476,1.098 -7.697,1.088 -11.24,0.256c-0.671,-0.157 -1.418,-0.726 -2.035,-0.166c-0.5,0.453 -0.064,1.721 0.442,2.046c0.988,0.635 4.064,0.961 5.286,1.015c1.799,0.08 6.309,-0.133 7.818,-1.068c0.707,-0.438 1.158,-2.483 0.324,-2.36m-11.813,-2.686l0,1.861c0.344,0.234 0.896,0.321 1.317,0.402c3.01,0.576 6.33,0.395 9.281,-0.4l0.142,-1.576c-3.281,1.243 -7.555,1.291 -10.741,-0.287m10.235,-9.566c0.024,0.041 0.307,0.148 0.443,0.368c0.525,0.852 -0.048,1.916 -0.843,2.372c0.493,0.461 0.879,0.368 1.434,0.099c1.1,-0.532 2.516,-2.415 2.659,-3.642c0.297,-2.559 -2.537,-2.013 -3.505,-0.451c-0.169,0.273 -0.337,0.995 -0.187,1.253m-2.026,9.184c0.03,-0.905 -0.036,-1.819 -0.003,-2.724c0.038,-1.042 0.327,-2.576 0.281,-3.534c-0.009,-0.174 -0.45,-0.746 -0.521,-1.086c-0.259,-1.234 0.849,-2.366 1.077,-3.612c0.141,-0.771 0.382,-3.266 -0.723,-3.408c-1.119,-0.143 -2.2,2.28 -2.5,3.145c-0.143,0.412 -0.407,1.265 -0.435,1.674c-0.053,0.772 0.687,3.443 -0.756,3.351c-1.192,-0.077 -0.587,-2.812 -0.62,-3.587c-0.038,-0.894 -0.791,-3.909 -1.712,-4.208c-1.059,-0.343 -1.387,1.474 -1.441,2.197c-0.29,3.866 1.382,8.036 2.603,11.629c0.146,0.318 0.902,0.336 1.263,0.359c1.166,0.077 2.334,-0.069 3.487,-0.196m1.147,-0.286c0.614,-0.218 1.399,-0.412 1.94,-0.78c1.168,-0.793 3.326,-2.993 4.153,-4.153c7.556,-10.605 -4.157,-23.985 -15.642,-17.838c-7.011,3.752 -8.768,12.5 -3.484,18.571c0.7,0.805 3.13,3.101 3.993,3.549c0.182,0.094 1.625,0.714 1.688,0.65c-1.01,-2.898 -2.115,-5.862 -2.47,-8.937c-0.193,-1.666 -0.201,-5.089 1.589,-5.929c1.928,-0.905 3.163,1.115 3.697,2.647c0.697,-1.285 1.565,-3.038 3.243,-3.154c1.97,-0.136 2.57,1.808 2.439,3.441c2.913,-2.085 5.701,0.14 4.341,3.531c-0.772,1.926 -2.984,4.343 -5.296,3.629l-0.191,4.773Zm2.863,2.005c2.281,-0.087 1.567,3.574 0.472,4.529c-0.357,0.312 -0.848,0.412 -1.233,0.673c1.065,1.926 -0.251,3.594 -2.247,3.866c-0.665,4.608 -7.678,4.71 -8.348,0.046c-2.096,-0.137 -3.138,-1.954 -2.295,-3.862c-1.424,-0.326 -2.133,-1.187 -2.279,-2.638c-0.167,-1.661 0.605,-2.379 2.182,-2.616c-0.129,-0.464 -0.027,-1.02 -0.114,-1.456c-0.22,-1.093 -2.749,-2.942 -3.603,-3.938c-6.906,-8.056 -2.058,-20.036 7.938,-22.224c12.893,-2.82 21.785,12.116 13.536,22.319c-0.851,1.052 -1.725,1.687 -2.672,2.579c-0.9,0.848 -1.302,1.41 -1.336,2.722" style="fill:#12164A;fill-rule:nonzero;"/><path d="M83.213,46.982c0.309,-0.295 -0.133,-0.944 -0.32,-1.21c-0.831,-1.183 -3.201,-2.462 -4.642,-1.987c-0.617,0.203 -0.378,0.769 -0.115,1.208c0.694,1.159 3.035,2.301 4.373,2.193c0.129,-0.01 0.631,-0.133 0.705,-0.204m-5.062,-4.537c1.986,-0.307 4.471,0.813 5.697,2.372c0.822,1.045 1.31,2.627 -0.145,3.372c-2.346,1.201 -7.489,-1.471 -7.152,-4.289c0.088,-0.736 0.903,-1.347 1.6,-1.454" style="fill:#12164A;fill-rule:nonzero;"/><path d="M43.691,43.212c-0.85,0.099 -2.032,0.678 -2.698,1.216c-0.421,0.341 -1.808,1.808 -0.91,2.147c1.299,0.49 3.748,-0.791 4.582,-1.817c0.974,-1.2 0.462,-1.713 -0.974,-1.546m0.097,-1.335c2.043,-0.172 3.427,1.139 2.255,3.114c-1.075,1.814 -4.603,3.709 -6.649,2.751c-1.048,-0.491 -1.056,-1.568 -0.663,-2.521c0.705,-1.711 3.256,-3.191 5.057,-3.344" style="fill:#12164A;fill-rule:nonzero;"/><path d="M81.876,26.599c-0.815,0.11 -2.168,0.776 -2.65,1.456c-0.575,0.812 -0.269,1.145 0.645,1.263c1.096,0.142 2.828,-0.434 3.697,-1.123c1.925,-1.528 -0.366,-1.775 -1.691,-1.596m0.097,-1.335c3.924,-0.447 5.029,2.586 1.518,4.477c-1.299,0.7 -3.154,1.149 -4.578,0.63c-1.035,-0.377 -1.515,-1.191 -1.164,-2.267c0.497,-1.526 2.711,-2.668 4.224,-2.84" style="fill:#12164A;fill-rule:nonzero;"/><path d="M41.592,25.743c-0.383,0.035 -1.752,0.316 -1.879,0.704c-0.253,0.771 2.04,1.644 2.64,1.725c0.742,0.101 3.299,0.145 2.719,-1.192c-0.411,-0.946 -2.569,-1.322 -3.48,-1.237m-0.479,-1.243c1.171,-0.131 2.482,-0.008 3.552,0.5c2.754,1.309 2.109,4.262 -0.907,4.532c-1.543,0.138 -3.99,-0.541 -4.954,-1.821c-1.368,-1.816 0.676,-3.028 2.309,-3.211" style="fill:#12164A;fill-rule:nonzero;"/><path d="M61.346,13.993c-0.421,0.097 -0.694,0.689 -0.728,1.09c-0.165,1.966 2.83,4.738 3.131,2.077c0.152,-1.341 -0.769,-3.543 -2.403,-3.167m0.102,-1.331c3.433,-0.366 4.972,5.755 2.144,6.726c-3.382,1.161 -6.434,-6.268 -2.144,-6.726" style="fill:#12164A;fill-rule:nonzero;"/></g></svg>